# xmcd
#
# Track frame offsets: 
#        150
#        16502
#        33554
#        50567
#        65308
#        82609
#        99263
#        113108
#        127888
#        145459
#        163187
#        182507
#        196546
#
# Disc length: 2838 seconds
#
# Revision: 0
# Processed by: cddbd v1.5.2PL0 Copyright (c) Steve Scherf et al.
# Submitted via: ExactAudioCopy v0.99pb5
#
DISCID=970b140d
DTITLE=Ace Of Base - The Golden Ratio
DYEAR=2010
DGENRE=Pop
TTITLE0=All for you
TTITLE1=Blah, blah, blah on the radio
TTITLE2=The golden ratio
TTITLE3=Southern California
TTITLE4=Told my ma
TTITLE5=Black sea
TTITLE6=One day
TTITLE7=Juliet
TTITLE8=Precious
TTITLE9=Vision in blue
TTITLE10=Mr. Replay (feat. Lex Marshall)
TTITLE11=Who I am
TTITLE12=Doreen
EXTD=
EXTT0=
EXTT1=
EXTT2=
EXTT3=
EXTT4=
EXTT5=
EXTT6=
EXTT7=
EXTT8=
EXTT9=
EXTT10=
EXTT11=
EXTT12=
PLAYORDER=
